<svg xmlns="http://www.w3.org/2000/svg" width="37.307" height="17.983" viewBox="0 0 37.307 17.983">
  <g id="Group_80" data-name="Group 80" transform="translate(0 0)">
    <g id="Group_79" data-name="Group 79" transform="translate(0 0)">
      <path id="Path_67" data-name="Path 67" d="M36.776,202.476h-2.6V186.182a.556.556,0,0,0-.563-.563H28.435a.556.556,0,0,0-.563.563v16.294h-1.9V191.813a.556.556,0,0,0-.563-.563H20.2a.556.556,0,0,0-.563.563v10.663h-1.9V190.968a.556.556,0,0,0-.563-.563H12a.556.556,0,0,0-.563.563v11.508h-1.9v-8.2a.556.556,0,0,0-.563-.563H3.766a.556.556,0,0,0-.563.563v8.2H.563a.563.563,0,1,0,0,1.126H36.741a.556.556,0,0,0,.563-.563A.508.508,0,0,0,36.776,202.476Zm-28.4,0H4.329v-7.637H8.376Zm8.235,0H12.564V191.531h4.047Zm8.2,0H20.763v-10.1H24.81Zm8.235,0H29V186.745h4.047Z" transform="translate(0 -185.619)" fill="#090909"/>
    </g>
  </g>
</svg>
