<svg xmlns="http://www.w3.org/2000/svg" width="37.307" height="31.321" viewBox="0 0 37.307 31.321">
  <g id="bars" transform="translate(0 -34.019)">
    <g id="Group_74" data-name="Group 74" transform="translate(25.901 34.019)">
      <g id="Group_73" data-name="Group 73">
        <path id="Path_64" data-name="Path 64" d="M299.5,34.019a5.12,5.12,0,0,0,0,10.241,5.144,5.144,0,0,0,5.138-5.138A5.092,5.092,0,0,0,299.5,34.019Zm0,9.115a3.994,3.994,0,1,1,4.012-3.977A4.01,4.01,0,0,1,299.5,43.134Z" transform="translate(-294.4 -34.019)" fill="#090909"/>
      </g>
    </g>
    <g id="Group_76" data-name="Group 76" transform="translate(29.35 35.814)">
      <g id="Group_75" data-name="Group 75" transform="translate(0 0)">
        <path id="Path_65" data-name="Path 65" d="M336.873,58.536a.919.919,0,0,0-.106-.282.882.882,0,0,0-.141-.246c-.07-.07-.106-.141-.176-.211a.631.631,0,0,0-.246-.176.882.882,0,0,0-.246-.141c-.106-.035-.176-.106-.282-.141a2.421,2.421,0,0,1-.282-.106.267.267,0,0,1-.141-.07c-.035-.035-.106-.035-.141-.07s-.106-.035-.141-.07l-.106-.106a.183.183,0,0,1-.07-.141.211.211,0,0,1-.035-.141V56.46c0-.035.035-.106.035-.141.035-.035.035-.106.07-.141l.106-.106a.269.269,0,0,1,.176-.07.317.317,0,0,1,.176-.035h.211a.317.317,0,0,1,.176.035,1.526,1.526,0,0,1,.176.035c.035,0,.106.035.141.035.07,0,.106.035.141.035l.176.07.035-.211.07-.563v-.141l-.141-.035c-.035,0-.106-.035-.141-.035s-.07-.035-.141-.035a1.524,1.524,0,0,0-.176-.035c-.07,0-.106-.035-.176-.035h-.035v-.669H334.8v.7h-.035a1.25,1.25,0,0,0-.317.141.631.631,0,0,0-.246.176,1.527,1.527,0,0,0-.211.246.707.707,0,0,0-.141.282l-.106.317a1.2,1.2,0,0,0-.035.352.775.775,0,0,0,.035.282.919.919,0,0,0,.106.282c.035.07.106.176.141.246.07.07.106.141.176.211a.631.631,0,0,0,.246.176.883.883,0,0,0,.246.141,2.09,2.09,0,0,1,.282.141,2.421,2.421,0,0,1,.282.106.267.267,0,0,1,.141.07c.035.035.106.035.141.07s.07.07.106.07l.106.106c.035.035.035.07.07.141a1.524,1.524,0,0,1,.035.176v.176a.267.267,0,0,1-.07.141l-.106.106a.486.486,0,0,1-.141.106c-.035.035-.106.035-.141.07a1.523,1.523,0,0,1-.176.035h-.457a1.524,1.524,0,0,1-.176-.035.5.5,0,0,1-.211-.07c-.07-.035-.141-.035-.211-.07-.035,0-.07-.035-.106-.035s-.07-.035-.106-.035l-.211-.106-.035.246-.07.633v.106l.106.035a.471.471,0,0,1,.317.035.652.652,0,0,0,.246.07c.07.035.176.035.282.07a.775.775,0,0,0,.282.035h.07v.7h.845v-.739h.035a1.25,1.25,0,0,0,.317-.141,1.234,1.234,0,0,0,.282-.176,1.531,1.531,0,0,0,.211-.246,1.967,1.967,0,0,0,.176-.282l.106-.317a1.086,1.086,0,0,0,.035-.352A.776.776,0,0,0,336.873,58.536Z" transform="translate(-333.6 -54.419)" fill="#090909"/>
      </g>
    </g>
    <g id="Group_78" data-name="Group 78" transform="translate(6.026 44.713)">
      <g id="Group_77" data-name="Group 77">
        <path id="Path_66" data-name="Path 66" d="M91,155.785a.6.6,0,0,0-.809-.106l-5.7,4.54-7.355-3.062a.561.561,0,0,0-.528.07l-7.883,5.631a.562.562,0,0,0-.141.774.513.513,0,0,0,.457.246.568.568,0,0,0,.317-.106L77,158.318l7.39,3.062a.633.633,0,0,0,.563-.07l5.947-4.716A.6.6,0,0,0,91,155.785Z" transform="translate(-68.489 -155.569)" fill="#090909"/>
      </g>
    </g>
    <g id="Group_80" data-name="Group 80" transform="translate(0 47.357)">
      <g id="Group_79" data-name="Group 79" transform="translate(0 0)">
        <path id="Path_67" data-name="Path 67" d="M36.776,202.476h-2.6V186.182a.556.556,0,0,0-.563-.563H28.435a.556.556,0,0,0-.563.563v16.294h-1.9V191.813a.556.556,0,0,0-.563-.563H20.2a.556.556,0,0,0-.563.563v10.663h-1.9V190.968a.556.556,0,0,0-.563-.563H12a.556.556,0,0,0-.563.563v11.508h-1.9v-8.2a.556.556,0,0,0-.563-.563H3.766a.556.556,0,0,0-.563.563v8.2H.563a.563.563,0,1,0,0,1.126H36.741a.556.556,0,0,0,.563-.563A.508.508,0,0,0,36.776,202.476Zm-28.4,0H4.329v-7.637H8.376Zm8.235,0H12.564V191.531h4.047Zm8.2,0H20.763v-10.1H24.81Zm8.235,0H29V186.745h4.047Z" transform="translate(0 -185.619)" fill="#090909"/>
      </g>
    </g>
  </g>
</svg>
