<svg xmlns="http://www.w3.org/2000/svg" xmlns:xlink="http://www.w3.org/1999/xlink" width="664.944" height="538.935" viewBox="0 0 664.944 538.935">
  <defs>
    <linearGradient id="linear-gradient" x1="0.498" y1="1.08" x2="0.498" y2="0.201" gradientUnits="objectBoundingBox">
      <stop offset="0" stop-color="#c8cbf7"/>
      <stop offset="0.004" stop-color="#c7caf6"/>
      <stop offset="0.254" stop-color="#abaff3"/>
      <stop offset="0.504" stop-color="#979bf1"/>
      <stop offset="0.753" stop-color="#8b8ff0"/>
      <stop offset="1" stop-color="#878cf0"/>
    </linearGradient>
    <linearGradient id="linear-gradient-2" x1="0.5" y1="0.987" x2="0.5" y2="0.051" xlink:href="#linear-gradient"/>
    <linearGradient id="linear-gradient-3" x1="0.495" y1="0.159" x2="0.521" y2="1.06" gradientUnits="objectBoundingBox">
      <stop offset="0" stop-color="#f37164"/>
      <stop offset="0.819" stop-color="#eb2864"/>
      <stop offset="1" stop-color="#b33168"/>
    </linearGradient>
    <linearGradient id="linear-gradient-4" x1="0.5" y1="0" x2="0.5" y2="1" xlink:href="#linear-gradient"/>
    <linearGradient id="linear-gradient-6" x1="0.437" y1="0.506" x2="0.891" y2="0.851" xlink:href="#linear-gradient-3"/>
    <linearGradient id="linear-gradient-7" x1="0.486" y1="1.047" x2="0.486" y2="0.154" xlink:href="#linear-gradient"/>
    <linearGradient id="linear-gradient-8" x1="-1.381" y1="-0.916" x2="-1.381" y2="-1.858" xlink:href="#linear-gradient"/>
  </defs>
  <g id="Group_52" data-name="Group 52" transform="translate(-518 -159.586)">
    <g id="Group_51" data-name="Group 51" transform="translate(518 159.586)">
      <path id="Path_5" data-name="Path 5" d="M995.5,375.232c-1.814,83.982-44.8,162.2-112.2,210.972q-8.694,6.3-17.625,11.939c-54.8,34.8-115.319,51.44-177.051,50.693a349.311,349.311,0,0,1-99.236-15.928C484.61,600.519,385.21,520.447,355.426,406.74c-16.451-62.784-15.222-144.16,23.8-197.459A134.674,134.674,0,0,1,402.1,184.961c28.9-23.861,64.83-35.667,101.564-38.829,3.027-.249,6.052-.46,9.079-.595a266.789,266.789,0,0,1,59.347,3.987c32.828,5.884,64.079,17.842,95.091,30.281q.853.374,1.706.69c23.915,9.641,47.7,19.492,72,27.023,2.658.825,5.319,1.628,8,2.376a278.251,278.251,0,0,0,44.656,9.219c5.887.69,11.829,1.227,17.772,1.667,10.728.805,21.511,1.3,32.185,1.839,66.646,3.374,128.855,8.145,146.791,95.386A256.609,256.609,0,0,1,995.5,375.232Z" transform="translate(-330.613 -109.925)" fill="#d0e0ea"/>
      <path id="Path_6" data-name="Path 6" d="M898.958,200.758c29.922,53.5,30.655,119.317,4.447,176.077q-3.38,7.323-7.156,14.329a252.213,252.213,0,0,1-97.54,100.42,277.351,277.351,0,0,1-71.1,28.407c-80.835,20.2-175.809,8.347-237.5-51.609-34.07-33.1-63.413-84.74-57.518-133.358A100.236,100.236,0,0,1,438.6,310.88c10.149-26.191,29.38-47.523,52.342-63.734,1.9-1.328,3.806-2.632,5.743-3.888a212.406,212.406,0,0,1,40.468-20.471c23.748-9.011,48.71-13.592,73.694-17.779q.7-.095,1.376-.226c19.285-3.2,38.562-6.215,57.317-10.888,2.053-.512,4.1-1.035,6.135-1.6A220.384,220.384,0,0,0,708.431,180.8c4.124-1.846,8.226-3.81,12.294-5.833,7.347-3.648,14.617-7.51,21.829-11.306,45.035-23.682,87.673-44.767,131.779,3.136A179.549,179.549,0,0,1,898.958,200.758Z" transform="translate(-265.408 -115.418)" fill="url(#linear-gradient)"/>
      <path id="Path_7" data-name="Path 7" d="M958.968,362.026c-1.737,76.893-42.868,148.5-107.355,193.161q-8.317,5.764-16.863,10.932a316.444,316.444,0,0,1-169.4,46.413A348.013,348.013,0,0,1,570.4,597.95C470.151,568.3,375.045,494.983,346.548,390.874c-15.74-57.485-14.564-131.991,22.776-180.79a125.771,125.771,0,0,1,21.882-22.268c27.655-21.846,62.03-32.656,97.177-35.551,2.9-.228,5.791-.421,8.686-.544a266.518,266.518,0,0,1,56.783,3.65c31.41,5.387,61.31,16.337,90.983,27.725q.816.342,1.632.632c22.882,8.826,45.641,17.846,68.891,24.742,2.544.755,5.089,1.492,7.651,2.176a276.754,276.754,0,0,0,42.728,8.44c5.633.632,11.318,1.123,17,1.527,10.265.737,20.583,1.193,30.8,1.685,63.767,3.088,123.288,7.458,140.449,87.333A225.229,225.229,0,0,1,958.968,362.026Z" transform="translate(-336.988 -105.24)" fill="url(#linear-gradient-2)"/>
      <g id="Group_17" data-name="Group 17" transform="translate(84.335 44.966)">
        <g id="Group_9" data-name="Group 9">
          <path id="Path_8" data-name="Path 8" d="M492.737,377.582c-18.505-12.3-37.09-24.824-52.654-35.354,20.869-9.111,22.875-36.086,15.059-43.61,11.871,4.718,25.363,9.9,39.183,15.092,33.789,12.7,69.507,25.523,88.033,32.122,8.054,2.872,12.852,4.562,12.852,4.562s5.564-3.5,14.631-9.011c10.925-6.612,26.93-16.117,44.4-25.849v-.012c38.227-21.287,83.459-43.656,97.786-39.206a90.677,90.677,0,0,1,9.574,3.559c35.793,15.9,31.8,47.283,16.388,70.835-8.177,12.49-19.543,22.8-29.892,27.425-31.457,14.1-148.066,62.916-169.557,53.635C568.73,427.536,530.943,403,492.737,377.582Z" transform="translate(-343.514 -56.405)" fill="url(#linear-gradient-3)"/>
          <path id="Path_9" data-name="Path 9" d="M614.479,211.469c.519,1.386-2.962,12.56-7.851,16.568l-11.16-7.973c5.427-2.523,8.616-11.9,9.46-17.109C604.928,202.955,613.949,210.072,614.479,211.469Z" transform="translate(-226.239 -111.343)" fill="#707be0"/>
          <path id="Path_10" data-name="Path 10" d="M568.563,162.543c8.223,7.635,71.521,64.1,71.251,69.042-.033.53-.1,1.162-.214,1.871-.844,5.2-4.032,14.585-9.46,17.109a6.749,6.749,0,0,1-2.615.642c-7.849.27-30.094-10.981-45.525-18.056s-32.471-16.161-32.471-16.161a33.877,33.877,0,0,0,10.62-10.385c6.938-10.463,12.3-34.016,10.464-40.3A8.241,8.241,0,0,0,568.563,162.543Z" transform="translate(-260.911 -141.843)" fill="url(#linear-gradient-4)"/>
          <path id="Path_11" data-name="Path 11" d="M613.251,217.347c-3.166,43.375-11.343,86.029-19.734,128.626-1.542.158-20.069,1.713-17.344-12.073a21.5,21.5,0,0,0-.079-6.342c-2.3-18.834-18.393-61.6-19.543-63.785-.833-1.586-8.582-4.471-15.25-7.015a79.772,79.772,0,0,1-8.818-3.706c-4.575-2.625-4.72-12.615-4.708-20.32,0-6.307,1.17-18.279,1.193-26.716V206a11.53,11.53,0,0,0,3.164-.314c2.265-.349.53-4.359,3.425-6.454a4.222,4.222,0,0,1,2.5-.653c3.5,0,8.761,2.353,12.569,3.446,4.876,1.4,41.5,9.247,51.968,12.209C605.4,215.028,609.14,216.142,613.251,217.347Z" transform="translate(-277.329 -114.642)" fill="#f9fbfc"/>
          <path id="Path_12" data-name="Path 12" d="M604.49,168.321a8.346,8.346,0,0,0-2.053-3.773l-.105-.088a9.842,9.842,0,0,0-3.667-2.088,32.855,32.855,0,0,0-6.51-1.421c-3.422-.456-7.844-.79-13.564-1-20.934-.79-44.483,5.089-50.238,7.7-3.246,1.492-6.563,4.194-10.055,9.09a83.513,83.513,0,0,0-8.388,15.635c-7.019,16.372-6.633,25.163-1.123,28.62l.035.035c.105.053.228.123.351.193.158.088.316.175.491.263a11.246,11.246,0,0,0,2.457.86c8.423,1.93,29.111,2.9,43.36,2.667,3.281-.035,6.212-.158,8.581-.316,7.282-.526,13.792-2.3,19.337-5.7a34.023,34.023,0,0,0,10.634-10.388,39.03,39.03,0,0,0,2.439-4.317C602.156,192.712,606.087,173.849,604.49,168.321Zm-15.67,33.8c-3.86,6.58-8.6,12.125-13.81,14.634-17.53,8.458-61.433,6.212-66.645.632-4.527-4.843,2.527-27.97,11.564-40.008a28.222,28.222,0,0,1,4.369-4.738c10.914-9.072,53.1-12.529,72.242-8.633C602.174,165.163,597.928,186.57,588.82,202.117Z" transform="translate(-294.786 -143.854)" fill="#707be0"/>
          <path id="Path_13" data-name="Path 13" d="M595.551,162.917c8.009,1.634-4.01,44.311-21.536,52.746s-61.428,6.207-66.643.619,5.012-35.681,15.926-44.737S576.4,159.009,595.551,162.917Z" transform="translate(-293.79 -142.759)" fill="url(#linear-gradient-4)"/>
          <path id="Path_14" data-name="Path 14" d="M580.511,354.462c-.123-.684-.263-1.369-.4-2.071-.14-.719-.3-1.439-.474-2.193q-.237-1.132-.526-2.264-.263-1.158-.579-2.369-.29-1.184-.632-2.422c-1.527-5.738-3.4-11.95-5.352-17.951-.281-.86-.544-1.7-.825-2.544-4.738-14.389-9.563-27.005-10.177-28.163-.842-1.6-8.581-4.475-15.249-7.019.017,8.282-6.229,42.079-12.792,77.559-4.685,25.251-9.493,51.344-12.336,69.751l12.845,4.562s5.563-3.509,14.634-9.019c4.9-23.11,18.179-61.082,31.919-72l.526-.07Q580.88,356.489,580.511,354.462ZM674.53,217.435c-.526-8.51-2.071-16.372-3.913-20.285-6.159-13.09-23.6-26.163-23.6-26.163-3.141-6.106-18.67-9.616-18.67-9.616-3.316-3.159-12.266-1.9-12.266-1.9-9.476-4.352-25.233,1.562-36.393,2.966a32.854,32.854,0,0,1,6.51,1.421,9.842,9.842,0,0,1,3.667,2.088l.105.088c5.387,5,34.463,31.006,53.765,49.712,10.142,9.827,17.583,17.635,17.495,19.337a18.567,18.567,0,0,1-.228,1.878s9.019,7.107,9.563,8.51C674.3,239.229,675.179,227.858,674.53,217.435ZM662.7,262.04l-11.16-7.984a6.678,6.678,0,0,1-2.615.649c-5.37.509-19.425-3.369-30.69-6.65-3.159,43.377-11.336,86.017-19.723,128.622q-2.737,13.9-5.475,27.777c38.236-21.285,83.473-43.64,97.791-39.2a93.967,93.967,0,0,1,9.581,3.562C665.177,323.474,657.649,273.727,662.7,262.04Z" transform="translate(-282.318 -145.345)" fill="#343b93"/>
          <path id="Path_15" data-name="Path 15" d="M613.717,209.734c-15.442-7.063-32.471-16.163-32.471-16.163-5.541,3.4-12.053,5.169-19.339,5.7-2.367.17-5.306.283-8.582.328-14.248.214-34.94-.744-43.352-2.681a10.7,10.7,0,0,1-2.467-.856c5.992,3.166,22.515,9.033,29.464,11.669,3.808,1.453,5.868,1.96,7.3,2.062a11.6,11.6,0,0,0,3.164-.316c2.265-.349.53-4.359,3.425-6.454a4.218,4.218,0,0,1,2.5-.653c3.5,0,8.762,2.353,12.569,3.446,4.876,1.4,41.5,9.247,51.968,12.209,2.806.788,6.543,1.9,10.655,3.108,11.264,3.278,25.319,7.165,30.692,6.658C651.393,228.059,629.148,216.807,613.717,209.734Z" transform="translate(-292.628 -118.425)" fill="#707be0"/>
          <path id="Path_16" data-name="Path 16" d="M446.033,370.637c-4.194-2.825-8.177-5.527-11.862-8.019.544,11.88,1.193,20.355,2.018,23.092,3.422,11.265,14.406,24.25,62.486,20.285C480.18,393.694,461.6,381.165,446.033,370.637Zm54.853-30.181-24.6-97.686c-6.194-8.546-38.165-4.176-44.079,3.58.105,20.162.3,45.4.7,68.873,7.194,3.3,16.968,7.352,28.181,11.809,11.862,4.72,25.356,9.9,39.183,15.091,33.8,12.7,69.505,25.531,88.035,32.129,2.843-18.407,7.651-44.5,12.336-69.751C557.845,314.661,501.676,339.946,500.886,340.455ZM648.3,304.08a22.077,22.077,0,0,0-.07-6.352l-.526.07c-13.74,10.914-27.023,48.887-31.919,72,10.932-6.615,26.935-16.108,44.395-25.847v-.018q2.711-13.9,5.475-27.777C664.112,316.31,645.582,317.854,648.3,304.08Zm105.74,102.477c-31.462,14.09-148.065,62.907-169.56,53.625-.579,14.213,18.6,34.13,13.371,59.135-1.685,8.124-3.246,18.986-4.369,27.83a316.444,316.444,0,0,0,169.4-46.413c4.159-43.395,11.213-97.089,21.057-121.6C775.766,391.606,764.395,401.923,754.042,406.556Z" transform="translate(-349.459 -84.819)" fill="url(#linear-gradient-6)"/>
          <path id="Path_17" data-name="Path 17" d="M428.515,239.79s-10.148-5.068-11.736-15.215,12.052-25.061,18.72-29.815,16.489-4.978,16.489-4.978-7.3-14.371-12.052-18.809-14.585-12.051-11.106-19.981c0,0,5.5-1.577,10.992,3.278s20.511,16.7,22.415,19.034,15.643,20.5,16.7,26-2.118,64.909-2.118,64.909L488.03,308.7c-6.194-8.549-38.172-4.178-44.084,3.571-.112-22.831-.1-39.185-.1-39.185s-6.127-3.164-11.207-14.585S428.515,239.79,428.515,239.79Z" transform="translate(-361.197 -150.747)" fill="#f9fbfc"/>
          <path id="Path_18" data-name="Path 18" d="M468.5,325.378c7.2,3.288,16.961,7.344,28.181,11.8,7.816,7.524,5.81,34.5-15.059,43.61-4.19-2.837-8.167-5.531-11.85-8.03-16.3-11.062-27.121-18.472-27.2-18.539-3.853-3.053-5.992-4.776-5.992-4.776a102.278,102.278,0,0,1-17.886-14.722,84.677,84.677,0,0,1-7.017-9.042,73.84,73.84,0,0,0-9.755-11.4c-8.5-8.121-20.364-19.272-15.789-25.466,6.1-8.2,27.076,17.83,28.979,16.354,1.925-1.476,2.727-16.456-3.008-27.663s-29.532-21.918-26.84-27.662,12.413.89,13.324-1.486c.9-2.355-16.161-19.013-11.746-22.708s12.7,4.1,12.638,3.153,5.034-4.255,8.088-2.962,11.2,7.356,22.513,25.41c5.824,9.293,9.844,19.8,13.708,30.006,2.049,5.394,3.987,10.835,5.845,16.286,1.96,5.722,3.255,11.837,5.9,17.289A24,24,0,0,0,460.646,322l.27-.281C462.945,322.788,465.5,324.015,468.5,325.378Z" transform="translate(-385.05 -94.97)" fill="#f9fbfc"/>
        </g>
        <g id="Group_14" data-name="Group 14" transform="translate(25.494 51.921)">
          <g id="Group_10" data-name="Group 10" transform="translate(36.932)">
            <path id="Path_19" data-name="Path 19" d="M440.846,235.181a1.125,1.125,0,0,1-.962-.539c-6.207-10.158-.907-28.53.869-33.933-10.739-.16-17.261-1.964-19.393-5.371a5.023,5.023,0,0,1-.132-5.012c1.572-3.234,12.939-7.519,20.4-9.168,7.408-1.637,8.944-.393,9.446.016,3.4,2.758,17.268,17.03,17.856,17.635a1.126,1.126,0,1,1-1.614,1.57c-.144-.147-14.37-14.782-17.661-17.458-.444-.36-2.527-.674-7.54.437-8.649,1.913-17.954,6.1-18.856,7.956a2.777,2.777,0,0,0,.016,2.829c1.011,1.616,4.831,4.325,19.056,4.325a1.124,1.124,0,0,1,1.058,1.513c-.083.226-8.188,22.669-1.578,33.486a1.126,1.126,0,0,1-.96,1.714Z" transform="translate(-420.625 -180.335)" fill="#d0e0ea"/>
          </g>
          <g id="Group_11" data-name="Group 11" transform="translate(40.699 31.26)">
            <path id="Path_20" data-name="Path 20" d="M424.281,205.145q-.2,0-.405-.005a1.128,1.128,0,0,1-1.1-1.149,1.144,1.144,0,0,1,1.149-1.1,20.24,20.24,0,0,0,12.65-4.457,1.127,1.127,0,0,1,1.5,1.685A22.228,22.228,0,0,1,424.281,205.145Z" transform="translate(-422.772 -198.15)" fill="#d0e0ea"/>
          </g>
          <g id="Group_12" data-name="Group 12" transform="translate(0 99.106)">
            <path id="Path_21" data-name="Path 21" d="M419.734,314.236a1.125,1.125,0,0,1-1.018-.64c-4.318-9.051-3.66-20.7-3.132-30.067.282-5.031.528-9.376-.114-11.908-1.848-7.273-15.619-32.889-15.757-33.145a1.127,1.127,0,0,1,1.985-1.07c.572,1.065,14.041,26.121,15.956,33.661.728,2.869.474,7.373.179,12.59-.511,9.105-1.151,20.439,2.918,28.971a1.124,1.124,0,0,1-.532,1.5A1.113,1.113,0,0,1,419.734,314.236Z" transform="translate(-399.578 -236.815)" fill="#d0e0ea"/>
          </g>
          <g id="Group_13" data-name="Group 13" transform="translate(242.185 61.742)">
            <path id="Path_22" data-name="Path 22" d="M538.719,238.069a1.125,1.125,0,0,1-.17-2.237,115.729,115.729,0,0,1,18.353-1.1c7.784-.03,15.138-.056,23.366-2.973A38.283,38.283,0,0,0,600,216.107a1.127,1.127,0,0,1,1.979,1.077,39.853,39.853,0,0,1-20.957,16.7c-8.593,3.044-16.133,3.071-24.114,3.1a114.364,114.364,0,0,0-18.014,1.074A.975.975,0,0,1,538.719,238.069Z" transform="translate(-537.596 -215.521)" fill="#d0e0ea"/>
          </g>
        </g>
        <g id="Group_15" data-name="Group 15" transform="translate(252.915 97.19)">
          <path id="Path_23" data-name="Path 23" d="M530.31,214.315a1.126,1.126,0,0,1-.569-2.1A28.843,28.843,0,0,1,542.66,208.6c7.124,0,15.6-1.113,17.11-2.246a1.126,1.126,0,1,1,1.351,1.8c-2.541,1.906-13.278,2.7-18.461,2.7-6.028,0-11.727,3.273-11.785,3.306A1.116,1.116,0,0,1,530.31,214.315Z" transform="translate(-529.183 -206.134)" fill="#d0e0ea"/>
        </g>
        <g id="Group_16" data-name="Group 16" transform="translate(257.966 107.408)">
          <path id="Path_24" data-name="Path 24" d="M533.188,215.366a1.126,1.126,0,0,1-.37-2.19,25.724,25.724,0,0,1,6.35-1.211,1.126,1.126,0,1,1,.175,2.244,24.329,24.329,0,0,0-5.785,1.095A1.093,1.093,0,0,1,533.188,215.366Z" transform="translate(-532.061 -211.957)" fill="#d0e0ea"/>
        </g>
      </g>
      <g id="Group_18" data-name="Group 18" transform="translate(539.048 344.474)">
        <path id="Path_25" data-name="Path 25" d="M649.448,344.287a5.266,5.266,0,1,0-3.722-1.542,5.3,5.3,0,0,0,3.722,1.542" transform="translate(-644.184 -312.13)" fill="#f9fbfc"/>
        <path id="Path_26" data-name="Path 26" d="M680.385,344.287h.026a5.265,5.265,0,0,0,0-10.53h-.026a5.265,5.265,0,1,0,0,10.53Z" transform="translate(-620.836 -312.13)" fill="#f9fbfc"/>
        <path id="Path_27" data-name="Path 27" d="M664.912,344.287h.026a5.265,5.265,0,1,0,0-10.53h-.026a5.265,5.265,0,0,0,0,10.53Z" transform="translate(-632.513 -312.13)" fill="#f9fbfc"/>
        <path id="Path_28" data-name="Path 28" d="M649.448,331.962a5.266,5.266,0,1,0-3.722-1.542,5.3,5.3,0,0,0,3.722,1.542" transform="translate(-644.184 -321.432)" fill="#f9fbfc"/>
        <path id="Path_29" data-name="Path 29" d="M680.385,331.962h.026a5.265,5.265,0,0,0,0-10.53h-.026a5.265,5.265,0,1,0,0,10.53Z" transform="translate(-620.836 -321.432)" fill="#f9fbfc"/>
        <path id="Path_30" data-name="Path 30" d="M664.912,331.962h.026a5.265,5.265,0,1,0,0-10.53h-.026a5.265,5.265,0,0,0,0,10.53Z" transform="translate(-632.513 -321.432)" fill="#f9fbfc"/>
        <path id="Path_31" data-name="Path 31" d="M649.448,356.612a5.266,5.266,0,1,0-3.722-1.542,5.3,5.3,0,0,0,3.722,1.542" transform="translate(-644.184 -302.828)" fill="#f9fbfc"/>
        <path id="Path_32" data-name="Path 32" d="M680.385,356.612h.026a5.265,5.265,0,0,0,0-10.53h-.026a5.265,5.265,0,1,0,0,10.53Z" transform="translate(-620.836 -302.828)" fill="#f9fbfc"/>
        <path id="Path_33" data-name="Path 33" d="M664.912,356.612h.026a5.265,5.265,0,1,0,0-10.53h-.026a5.265,5.265,0,0,0,0,10.53Z" transform="translate(-632.513 -302.828)" fill="#f9fbfc"/>
      </g>
      <g id="Group_19" data-name="Group 19" transform="translate(305.527 27.581)">
        <path id="Path_34" data-name="Path 34" d="M607.953,153.331c-4.738,0-7.112-2.723-9.209-5.126-1.928-2.213-3.453-3.959-6.64-3.959s-4.713,1.746-6.645,3.959c-2.1,2.4-4.471,5.126-9.209,5.126s-7.11-2.723-9.205-5.126c-1.93-2.213-3.453-3.959-6.64-3.959s-4.715,1.746-6.645,3.959c-2.1,2.4-4.475,5.126-9.212,5.126s-7.119-2.722-9.218-5.124c-1.932-2.213-3.458-3.96-6.652-3.96s-4.719,1.748-6.651,3.959c-2.1,2.4-4.478,5.126-9.219,5.126a1.7,1.7,0,1,1,0-3.406c3.194,0,4.72-1.748,6.652-3.96,2.1-2.4,4.476-5.126,9.218-5.126s7.119,2.723,9.218,5.126c1.932,2.213,3.459,3.96,6.652,3.96s4.715-1.748,6.647-3.96c2.1-2.4,4.471-5.126,9.211-5.126s7.112,2.723,9.207,5.127c1.928,2.211,3.452,3.959,6.638,3.959s4.711-1.748,6.643-3.96c2.1-2.4,4.473-5.126,9.211-5.126s7.112,2.723,9.209,5.126c1.928,2.213,3.451,3.96,6.64,3.96a1.7,1.7,0,0,1,0,3.406Z" transform="translate(-511.104 -140.839)" fill="#d0e0ea"/>
      </g>
      <g id="Group_20" data-name="Group 20" transform="translate(35.07 341.212)">
        <path id="Path_35" data-name="Path 35" d="M378.615,362.854l-21.641-21.641,21.639-21.639,21.641,21.639Zm-14.268-21.641,14.268,14.268,14.266-14.268-14.268-14.268Z" transform="translate(-356.974 -319.573)" fill="#f9fbfc"/>
      </g>
      <path id="Path_36" data-name="Path 36" d="M550.332,437.849c-4,5.885-10.392,10.671-18.539,13.72-35.909,13.438-87.5-3.511-115.734-27.062-9.374-7.817-17.733-20.036-13.578-31.513,15.765-43.54,94.821-23.54,123.274-7.942,8.709,4.775,17.186,10.516,22.92,18.625C555.76,413.7,557.441,427.39,550.332,437.849Z" transform="translate(-288.384 57.15)" fill="url(#linear-gradient-7)"/>
      <path id="Path_37" data-name="Path 37" d="M719.109,218.452a28.876,28.876,0,0,1-3.792,19.311c-14.485,22.962-53.7,24.168-71.9,5.706-5.992-6.077-10.148-14.394-9.646-22.913.742-12.559,11.476-22.757,23.41-26.742,19.239-6.422,48.682-5.571,59.008,15.124A31.012,31.012,0,0,1,719.109,218.452Z" transform="translate(-113.029 -75.943)" fill="url(#linear-gradient-8)"/>
      <g id="Group_21" data-name="Group 21" transform="translate(49.125 71.342)">
        <path id="Path_38" data-name="Path 38" d="M406.868,208.539a.874.874,0,0,1-.621-.256L365.24,167.277a.877.877,0,0,1,1.241-1.241l41.006,41.006a.876.876,0,0,1-.619,1.5Z" transform="translate(-364.984 -165.778)" fill="#f9fbfc"/>
      </g>
      <g id="Group_22" data-name="Group 22" transform="translate(219.905 134.746)">
        <path id="Path_39" data-name="Path 39" d="M506.911,247.392a.881.881,0,0,1-.621-.256L462.565,203.41a.877.877,0,0,1,1.241-1.241L507.53,245.9a.876.876,0,0,1-.619,1.5Z" transform="translate(-462.309 -201.911)" fill="#f9fbfc"/>
      </g>
      <g id="Group_23" data-name="Group 23" transform="translate(489.58 411.669)">
        <path id="Path_40" data-name="Path 40" d="M660.595,405.205a.869.869,0,0,1-.62-.258l-43.724-43.725a.877.877,0,0,1,1.241-1.241l43.725,43.725a.878.878,0,0,1-.621,1.5Z" transform="translate(-615.993 -359.726)" fill="#f9fbfc"/>
      </g>
      <g id="Group_24" data-name="Group 24" transform="translate(498.145 88.882)">
        <path id="Path_41" data-name="Path 41" d="M665.476,221.252a.867.867,0,0,1-.619-.256l-43.725-43.724a.877.877,0,1,1,1.241-1.241L666.1,219.755a.876.876,0,0,1-.621,1.5Z" transform="translate(-620.874 -175.774)" fill="#f9fbfc"/>
      </g>
      <g id="Group_25" data-name="Group 25" transform="translate(273.512 188.355)">
        <path id="Path_42" data-name="Path 42" d="M508.6,249.085a.867.867,0,0,1-.62-.256l-14.87-14.87a.877.877,0,0,1,1.241-1.241l14.868,14.87a.876.876,0,0,1-.619,1.5Z" transform="translate(-492.859 -232.462)" fill="#f9fbfc"/>
      </g>
      <g id="Group_26" data-name="Group 26" transform="translate(119.848 380.535)">
        <path id="Path_43" data-name="Path 43" d="M434.631,372.2a.882.882,0,0,1-.621-.256L405.546,343.48a.877.877,0,0,1,1.241-1.241L435.25,370.7a.876.876,0,0,1-.619,1.5Z" transform="translate(-405.288 -341.983)" fill="#f9fbfc"/>
      </g>
      <g id="Group_27" data-name="Group 27" transform="translate(633.387 233.018)">
        <path id="Path_44" data-name="Path 44" d="M713.694,274.54a.876.876,0,0,1-.621-.258L698.2,259.414a.878.878,0,0,1,1.241-1.242l14.868,14.87a.878.878,0,0,1-.619,1.5Z" transform="translate(-697.947 -257.915)" fill="#f9fbfc"/>
      </g>
      <g id="Group_28" data-name="Group 28" transform="translate(89.919 278.801)">
        <path id="Path_45" data-name="Path 45" d="M403.977,300.629a.867.867,0,0,1-.619-.256l-14.87-14.87a.877.877,0,0,1,1.241-1.241l14.87,14.87a.876.876,0,0,1-.621,1.5Z" transform="translate(-388.232 -284.006)" fill="#f9fbfc"/>
      </g>
      <g id="Group_32" data-name="Group 32" transform="translate(29.526 240.807)">
        <g id="Group_29" data-name="Group 29">
          <path id="Path_46" data-name="Path 46" d="M355.933,265.348a.874.874,0,0,1-.621-.256l-1.241-1.241a.877.877,0,0,1,1.241-1.241l1.241,1.241a.877.877,0,0,1-.619,1.5Z" transform="translate(-353.815 -262.354)" fill="#f9fbfc"/>
        </g>
        <g id="Group_30" data-name="Group 30" transform="translate(7.077 7.077)">
          <path id="Path_47" data-name="Path 47" d="M385.575,294.993a.875.875,0,0,1-.619-.258l-2.334-2.334a.877.877,0,0,1,1.241-1.241l2.334,2.334a.878.878,0,0,1-.621,1.5Zm-8.172-8.174a.874.874,0,0,1-.619-.256l-2.334-2.334a.877.877,0,1,1,1.241-1.241l2.334,2.334a.876.876,0,0,1-.621,1.5Zm-8.172-8.172a.881.881,0,0,1-.621-.256l-2.334-2.336a.877.877,0,1,1,1.241-1.241l2.336,2.336a.876.876,0,0,1-.621,1.5Zm-8.17-8.17a.875.875,0,0,1-.621-.258l-2.336-2.336a.877.877,0,1,1,1.241-1.241l2.336,2.336a.878.878,0,0,1-.619,1.5Z" transform="translate(-357.848 -266.387)" fill="#f9fbfc"/>
        </g>
        <g id="Group_31" data-name="Group 31" transform="translate(39.766 39.766)">
          <path id="Path_48" data-name="Path 48" d="M378.6,288.011a.876.876,0,0,1-.621-.258l-1.241-1.241a.877.877,0,0,1,1.241-1.241l1.241,1.241a.878.878,0,0,1-.619,1.5Z" transform="translate(-376.477 -285.016)" fill="#f9fbfc"/>
        </g>
      </g>
      <g id="Group_36" data-name="Group 36" transform="translate(310.975 460.993)">
        <g id="Group_33" data-name="Group 33">
          <path id="Path_49" data-name="Path 49" d="M516.324,390.825a.881.881,0,0,1-.621-.256l-1.235-1.234a.878.878,0,1,1,1.237-1.246l1.241,1.237a.877.877,0,0,1-.621,1.5Z" transform="translate(-514.209 -387.835)" fill="#f9fbfc"/>
        </g>
        <g id="Group_34" data-name="Group 34" transform="translate(7.865 7.863)">
          <path id="Path_50" data-name="Path 50" d="M531.5,406a.874.874,0,0,1-.619-.256l-2.651-2.651a.877.877,0,1,1,1.241-1.241l2.651,2.651a.877.877,0,0,1-.621,1.5Zm-9.279-9.279a.874.874,0,0,1-.62-.256l-2.653-2.653a.877.877,0,0,1,1.241-1.241l2.653,2.653a.876.876,0,0,1-.621,1.5Z" transform="translate(-518.691 -392.316)" fill="#f9fbfc"/>
        </g>
        <g id="Group_35" data-name="Group 35" transform="translate(26.432 26.432)">
          <path id="Path_51" data-name="Path 51" d="M531.387,405.89a.874.874,0,0,1-.623-.26l-1.235-1.235a.877.877,0,0,1,1.241-1.241l1.239,1.239a.878.878,0,0,1-.621,1.5Z" transform="translate(-529.272 -402.898)" fill="#f9fbfc"/>
        </g>
      </g>
      <g id="Group_40" data-name="Group 40" transform="translate(499.545 178.224)">
        <g id="Group_37" data-name="Group 37">
          <path id="Path_52" data-name="Path 52" d="M623.79,229.686a.875.875,0,0,1-.621-.258l-1.241-1.242a.877.877,0,1,1,1.241-1.241l1.241,1.242a.878.878,0,0,1-.619,1.5Z" transform="translate(-621.672 -226.689)" fill="#f9fbfc"/>
        </g>
        <g id="Group_38" data-name="Group 38" transform="translate(7.707 7.707)">
          <path id="Path_53" data-name="Path 53" d="M692.89,298.786a.88.88,0,0,1-.619-.256l-2.588-2.588a.877.877,0,1,1,1.241-1.241l2.588,2.586a.877.877,0,0,1-.621,1.5Zm-9.053-9.053a.869.869,0,0,1-.619-.258l-2.586-2.585a.877.877,0,1,1,1.241-1.241l2.586,2.585a.878.878,0,0,1-.621,1.5Zm-9.051-9.051a.869.869,0,0,1-.62-.258l-2.586-2.585a.877.877,0,1,1,1.241-1.241l2.586,2.585a.878.878,0,0,1-.621,1.5Zm-9.051-9.051a.876.876,0,0,1-.621-.258l-2.586-2.588a.877.877,0,1,1,1.241-1.241l2.586,2.588a.878.878,0,0,1-.619,1.5Zm-9.053-9.054a.881.881,0,0,1-.621-.256l-2.586-2.586a.878.878,0,0,1,1.242-1.241l2.585,2.586a.876.876,0,0,1-.62,1.5Zm-9.053-9.051a.88.88,0,0,1-.619-.256l-2.586-2.586a.877.877,0,0,1,1.241-1.241l2.587,2.586a.876.876,0,0,1-.621,1.5Zm-9.051-9.051a.869.869,0,0,1-.619-.258l-2.588-2.586a.877.877,0,0,1,1.241-1.241l2.588,2.586a.878.878,0,0,1-.621,1.5Zm-9.053-9.053a.869.869,0,0,1-.619-.258l-2.586-2.585a.877.877,0,1,1,1.241-1.241l2.586,2.585a.878.878,0,0,1-.621,1.5Z" transform="translate(-626.064 -231.081)" fill="#f9fbfc"/>
        </g>
        <g id="Group_39" data-name="Group 39" transform="translate(80.122 80.121)">
          <path id="Path_54" data-name="Path 54" d="M669.45,275.345a.876.876,0,0,1-.621-.258l-1.239-1.241a.877.877,0,0,1,1.239-1.241l1.242,1.241a.878.878,0,0,1-.621,1.5Z" transform="translate(-667.332 -272.349)" fill="#f9fbfc"/>
        </g>
      </g>
      <circle id="Ellipse_1" data-name="Ellipse 1" cx="4.941" cy="4.941" r="4.941" transform="translate(652.099 297.677)" fill="#f9fbfc"/>
      <circle id="Ellipse_2" data-name="Ellipse 2" cx="4.941" cy="4.941" r="4.941" transform="translate(499.434 513.583)" fill="#d0e0ea"/>
      <circle id="Ellipse_3" data-name="Ellipse 3" cx="4.941" cy="4.941" r="4.941" transform="translate(442.616 39.282)" fill="#d0e0ea"/>
      <circle id="Ellipse_4" data-name="Ellipse 4" cx="4.941" cy="4.941" r="4.941" transform="translate(259.326 233.943)" fill="#f9fbfc"/>
      <circle id="Ellipse_5" data-name="Ellipse 5" cx="4.941" cy="4.941" r="4.941" transform="translate(601.704 75.843)" fill="#f9fbfc"/>
      <g id="Group_41" data-name="Group 41" transform="translate(481.436 162.91)">
        <path id="Path_55" data-name="Path 55" d="M617.169,229.6a5.818,5.818,0,1,1,5.819-5.819A5.825,5.825,0,0,1,617.169,229.6Zm0-9.881a4.063,4.063,0,1,0,4.064,4.062A4.068,4.068,0,0,0,617.169,219.716Z" transform="translate(-611.352 -217.961)" fill="#f9fbfc"/>
      </g>
      <circle id="Ellipse_6" data-name="Ellipse 6" cx="4.941" cy="4.941" r="4.941" transform="translate(27.604 137.107)" fill="#f9fbfc"/>
      <circle id="Ellipse_7" data-name="Ellipse 7" cx="4.941" cy="4.941" r="4.941" transform="translate(139.921 367.34)" fill="#f9fbfc"/>
      <circle id="Ellipse_8" data-name="Ellipse 8" cx="4.941" cy="4.941" r="4.941" transform="translate(409.02 509.63)" fill="#f9fbfc"/>
      <g id="Group_42" data-name="Group 42" transform="translate(138.385 388.202)">
        <path id="Path_56" data-name="Path 56" d="M446.372,407.394a30.521,30.521,0,1,1,30.522-30.522A30.555,30.555,0,0,1,446.372,407.394Zm0-59.287a28.766,28.766,0,1,0,28.767,28.765A28.8,28.8,0,0,0,446.372,348.107Z" transform="translate(-415.852 -346.352)" fill="#f9fbfc"/>
      </g>
      <g id="Group_43" data-name="Group 43" transform="translate(235.22 45.927)">
        <path id="Path_57" data-name="Path 57" d="M490.881,190.981a19.843,19.843,0,1,1,19.842-19.843A19.866,19.866,0,0,1,490.881,190.981Zm0-37.932a18.089,18.089,0,1,0,18.088,18.09A18.109,18.109,0,0,0,490.881,153.049Z" transform="translate(-471.037 -151.294)" fill="#f9fbfc"/>
      </g>
      <g id="Group_46" data-name="Group 46" transform="translate(222.874 415.1)">
        <g id="Group_44" data-name="Group 44" transform="translate(11.034)">
          <path id="Path_58" data-name="Path 58" d="M473.023,367.149a2.734,2.734,0,1,1,2.736-2.734A2.734,2.734,0,0,1,473.023,367.149Z" transform="translate(-470.289 -361.681)" fill="#f9fbfc"/>
          <path id="Path_59" data-name="Path 59" d="M473.023,381.49a2.735,2.735,0,1,1,2.736-2.736A2.735,2.735,0,0,1,473.023,381.49Z" transform="translate(-470.289 -350.859)" fill="#f9fbfc"/>
          <path id="Path_60" data-name="Path 60" d="M473.023,395.829a2.735,2.735,0,1,1,2.736-2.736A2.735,2.735,0,0,1,473.023,395.829Z" transform="translate(-470.289 -340.037)" fill="#f9fbfc"/>
          <path id="Path_61" data-name="Path 61" d="M473.023,410.168a2.735,2.735,0,1,1,2.736-2.736A2.735,2.735,0,0,1,473.023,410.168Z" transform="translate(-470.289 -329.215)" fill="#f9fbfc"/>
          <path id="Path_62" data-name="Path 62" d="M473.023,424.507a2.735,2.735,0,1,1,2.736-2.734A2.735,2.735,0,0,1,473.023,424.507Z" transform="translate(-470.289 -318.392)" fill="#f9fbfc"/>
        </g>
        <g id="Group_45" data-name="Group 45" transform="translate(0 11.941)">
          <path id="Path_63" data-name="Path 63" d="M466.737,373.955a2.735,2.735,0,1,1,2.734-2.734A2.734,2.734,0,0,1,466.737,373.955Z" transform="translate(-464.001 -368.486)" fill="#f9fbfc"/>
          <path id="Path_64" data-name="Path 64" d="M466.737,388.3a2.735,2.735,0,1,1,2.734-2.736A2.736,2.736,0,0,1,466.737,388.3Z" transform="translate(-464.001 -357.663)" fill="#f9fbfc"/>
          <path id="Path_65" data-name="Path 65" d="M466.737,402.635a2.735,2.735,0,1,1,2.734-2.736A2.736,2.736,0,0,1,466.737,402.635Z" transform="translate(-464.001 -346.841)" fill="#f9fbfc"/>
          <path id="Path_66" data-name="Path 66" d="M466.737,416.974a2.735,2.735,0,1,1,2.734-2.736A2.736,2.736,0,0,1,466.737,416.974Z" transform="translate(-464.001 -336.019)" fill="#f9fbfc"/>
          <path id="Path_67" data-name="Path 67" d="M466.737,431.313a2.735,2.735,0,1,1,2.734-2.736A2.736,2.736,0,0,1,466.737,431.313Z" transform="translate(-464.001 -325.197)" fill="#f9fbfc"/>
        </g>
      </g>
      <g id="Group_47" data-name="Group 47" transform="translate(571.842 271.933)">
        <path id="Path_68" data-name="Path 68" d="M686.148,304.242h-22.4a.877.877,0,0,1-.877-.877v-22.4a.877.877,0,0,1,.877-.877h22.4a.877.877,0,0,1,.877.877v22.4A.877.877,0,0,1,686.148,304.242Zm-21.52-1.755H685.27V281.847H664.628Z" transform="translate(-662.873 -280.092)" fill="#f9fbfc"/>
      </g>
      <g id="Group_48" data-name="Group 48" transform="translate(67.491 432.918)">
        <path id="Path_69" data-name="Path 69" d="M392.545,390.056H376.577a1.126,1.126,0,0,1-1.127-1.127V372.962a1.126,1.126,0,0,1,1.127-1.127h15.968a1.126,1.126,0,0,1,1.127,1.127V388.93A1.126,1.126,0,0,1,392.545,390.056ZM377.7,387.8H391.42V374.086H377.7Z" transform="translate(-375.45 -371.835)" fill="#d0e0ea"/>
      </g>
      <g id="Group_49" data-name="Group 49" transform="translate(545.828 55.047)">
        <path id="Path_70" data-name="Path 70" d="M655.014,180.964a.927.927,0,0,1-.228-.03.887.887,0,0,1-.621-.621l-6.087-22.719a.879.879,0,0,1,.226-.848.893.893,0,0,1,.848-.228l22.72,6.087a.878.878,0,0,1,.395,1.469l-16.633,16.631A.879.879,0,0,1,655.014,180.964Zm-4.848-22.357,5.3,19.785,14.484-14.484Z" transform="translate(-648.048 -156.491)" fill="#f9fbfc"/>
      </g>
      <g id="Group_50" data-name="Group 50" transform="translate(181.805)">
        <path id="Path_71" data-name="Path 71" d="M465.247,147.743H441.723a1.127,1.127,0,0,1-.974-1.69l11.762-20.371a1.124,1.124,0,0,1,.974-.562h0a1.125,1.125,0,0,1,.976.562l11.76,20.371a1.127,1.127,0,0,1-.974,1.69Zm-21.571-2.253H463.3L453.485,128.5Z" transform="translate(-440.596 -125.121)" fill="#d0e0ea"/>
      </g>
    </g>
  </g>
</svg>
