<svg xmlns="http://www.w3.org/2000/svg" width="32.11" height="36.447" viewBox="0 0 32.11 36.447">
  <g id="save-money" transform="translate(-0.36)">
    <path id="Path_58" data-name="Path 58" d="M188.641,155.906a.569.569,0,0,0-.2-.007,1.359,1.359,0,0,1-1.2-1.348.6.6,0,0,0-1.2,0,2.558,2.558,0,0,0,1.881,2.463v.6a.6.6,0,1,0,1.2,0v-.562a2.553,2.553,0,0,0-.523-5.051,1.357,1.357,0,1,1,1.357-1.357.6.6,0,0,0,1.2,0,2.558,2.558,0,0,0-2.03-2.5V147.6a.6.6,0,1,0-1.2,0v.581a2.553,2.553,0,0,0,.673,5.015,1.357,1.357,0,0,1,.05,2.712Zm0,0" transform="translate(-171.803 -136.015)" fill="#090909"/>
    <path id="Path_59" data-name="Path 59" d="M104.195,115.161a8.669,8.669,0,1,0,8.669-8.669A8.669,8.669,0,0,0,104.195,115.161Zm8.669-7.473a7.473,7.473,0,1,1-7.473,7.473A7.473,7.473,0,0,1,112.864,107.688Zm0,0" transform="translate(-96.076 -98.534)" fill="#090909"/>
    <path id="Path_60" data-name="Path 60" d="M28.4,328.738l-4.683,2.213a3.814,3.814,0,0,0-3.252-2.007l-4.323-.119a4.565,4.565,0,0,1-1.965-.507l-.44-.228a7.759,7.759,0,0,0-7.187.008l.027-1A.6.6,0,0,0,6,326.487l-4.741-.13a.6.6,0,0,0-.614.581L.36,337.34a.6.6,0,0,0,.581.614l4.741.131H5.7a.6.6,0,0,0,.6-.581l.014-.5,1.232-.659a2.113,2.113,0,0,1,1.577-.173l7.354,2.064.039.01a7.873,7.873,0,0,0,1.616.167,7.977,7.977,0,0,0,3.332-.727.55.55,0,0,0,.074-.041l10.663-6.9a.6.6,0,0,0,.2-.8,3.02,3.02,0,0,0-3.988-1.215ZM1.572,336.776l.253-9.208,3.545.1-.253,9.208Zm19.349-.156a6.778,6.778,0,0,1-4.145.463l-7.335-2.059a3.305,3.305,0,0,0-2.464.269l-.629.337.168-6.122a6.572,6.572,0,0,1,6.676-.356l.44.228a5.774,5.774,0,0,0,2.482.641l4.323.119a2.622,2.622,0,0,1,2.492,2.089l-6.44-.178a.6.6,0,0,0-.033,1.2l7.107.2h.017a.6.6,0,0,0,.6-.581,3.794,3.794,0,0,0-.058-.776l4.8-2.27.014-.007A1.827,1.827,0,0,1,31,330.1Zm0,0" transform="translate(0 -301.968)" fill="#090909"/>
    <path id="Path_61" data-name="Path 61" d="M213.4,6.277V.6a.6.6,0,1,0-1.2,0V6.277a.6.6,0,1,0,1.2,0Zm0,0" transform="translate(-196.012)" fill="#090909"/>
    <path id="Path_62" data-name="Path 62" d="M273.4,43.288V40.6a.6.6,0,1,0-1.2,0v2.69a.6.6,0,1,0,1.2,0Zm0,0" transform="translate(-251.529 -37.011)" fill="#090909"/>
    <path id="Path_63" data-name="Path 63" d="M153.4,43.288V40.6a.6.6,0,0,0-1.2,0v2.69a.6.6,0,0,0,1.2,0Zm0,0" transform="translate(-140.496 -37.011)" fill="#090909"/>
  </g>
</svg>
